<svg id="svg" version="1.1" xmlns="http://www.w3.org/2000/svg" xmlns:xlink="http://www.w3.org/1999/xlink" width="400" height="241.18268215417106" viewBox="0, 0, 400,241.18268215417106"><g id="svgg"><path id="path0" d="M174.023 6.611 C 173.442 6.731,172.787 7.004,172.566 7.216 C 172.345 7.429,171.904 7.603,171.585 7.603 C 171.267 7.603,170.698 7.911,170.321 8.288 C 169.689 8.920,169.995 8.950,174.258 8.678 C 179.554 8.339,183.471 8.762,191.447 10.537 C 192.434 10.756,194.097 11.128,195.143 11.363 C 198.061 12.019,200.211 11.947,200.211 11.193 C 200.211 10.845,200.218 10.417,200.227 10.243 C 200.236 10.069,199.523 9.798,198.643 9.641 C 197.102 9.366,194.463 8.799,188.173 7.389 C 185.173 6.717,175.955 6.210,174.023 6.611 M149.649 7.949 C 148.315 8.648,147.466 10.465,148.039 11.392 C 148.330 11.863,147.380 12.313,144.456 13.087 C 138.990 14.537,134.412 16.260,133.192 17.328 C 132.455 17.972,131.125 18.624,130.235 18.776 C 128.232 19.119,124.939 20.747,124.681 21.522 C 124.542 21.940,124.708 22.010,125.286 21.776 C 125.724 21.598,127.508 21.064,129.250 20.590 C 130.993 20.115,133.273 19.125,134.319 18.389 C 135.364 17.654,137.360 16.705,138.754 16.280 C 140.148 15.856,141.763 15.362,142.344 15.183 C 142.925 15.003,144.556 14.529,145.968 14.128 C 149.742 13.058,150.155 12.614,150.340 9.427 C 150.413 8.178,152.392 8.342,159.029 10.146 C 165.492 11.903,170.224 12.569,170.218 11.721 C 170.215 11.103,168.164 10.054,167.618 10.392 C 167.005 10.771,164.700 10.107,164.991 9.635 C 165.159 9.364,164.937 9.304,164.397 9.476 C 163.282 9.829,161.280 9.328,161.619 8.780 C 161.786 8.509,161.387 8.466,160.507 8.659 C 159.547 8.870,159.221 8.820,159.423 8.493 C 159.582 8.236,159.526 8.025,159.299 8.025 C 159.072 8.025,158.538 7.912,158.113 7.774 C 157.454 7.560,157.433 7.597,157.973 8.022 C 158.490 8.429,158.412 8.469,157.550 8.240 C 152.982 7.027,151.514 6.972,149.649 7.949 M199.980 7.993 C 200.112 8.207,200.818 8.514,201.547 8.674 C 202.277 8.834,204.318 9.626,206.083 10.433 C 212.653 13.436,213.552 13.830,215.100 14.385 C 216.332 14.827,216.796 14.840,217.191 14.446 C 217.585 14.051,217.515 13.937,216.874 13.929 C 216.421 13.924,214.910 13.358,213.516 12.672 C 212.122 11.985,210.844 11.419,210.676 11.414 C 210.507 11.409,209.177 10.860,207.719 10.194 C 203.894 8.448,199.486 7.194,199.980 7.993 M218.374 13.821 C 218.722 13.952,219.483 14.385,220.063 14.783 C 223.060 16.839,233.894 22.386,234.910 22.386 C 236.331 22.386,236.102 21.603,234.534 21.098 C 233.661 20.817,232.755 20.437,232.522 20.254 C 231.160 19.185,219.114 13.503,218.310 13.550 C 217.893 13.574,217.911 13.647,218.374 13.821 M237.491 20.589 C 236.818 20.815,237.489 21.489,239.279 22.386 C 239.974 22.735,242.088 24.496,243.977 26.301 C 246.259 28.480,247.631 29.497,248.064 29.331 C 248.655 29.105,246.837 27.081,242.450 23.082 C 241.336 22.067,238.033 20.406,237.491 20.589 M126.082 28.685 C 124.921 29.290,122.954 30.142,121.711 30.578 C 120.468 31.015,118.567 31.820,117.487 32.368 C 116.407 32.917,115.333 33.367,115.100 33.369 C 114.569 33.375,113.086 35.930,113.421 36.265 C 113.557 36.401,113.800 36.317,113.962 36.080 C 114.586 35.161,120.094 32.225,124.296 30.571 C 126.197 29.823,128.747 28.043,128.368 27.729 C 128.273 27.649,127.244 28.080,126.082 28.685 M249.208 29.413 C 249.208 29.558,249.826 30.382,250.581 31.245 C 252.077 32.955,252.584 33.590,254.477 36.122 C 256.439 38.747,258.501 40.157,258.501 38.874 C 258.501 38.173,257.095 35.480,256.729 35.480 C 256.538 35.480,255.277 34.483,253.928 33.263 C 250.484 30.149,249.208 29.109,249.208 29.413 M112.541 37.790 C 112.090 38.131,111.149 38.416,110.449 38.424 C 109.039 38.439,103.301 40.164,101.739 41.043 C 97.981 43.157,98.515 44.682,103.273 45.425 C 104.203 45.570,105.533 45.846,106.230 46.038 C 106.927 46.230,108.020 46.502,108.659 46.644 C 110.062 46.954,110.201 48.118,108.942 49.009 C 107.130 50.291,104.154 55.596,102.480 60.527 C 101.335 63.898,101.722 66.705,103.163 65.483 C 105.671 63.356,106.543 62.757,108.726 61.657 C 111.638 60.192,112.183 60.123,112.460 61.182 C 112.826 62.580,114.299 62.543,115.885 61.096 C 118.528 58.685,119.626 58.097,124.287 56.598 C 127.697 55.502,127.932 55.119,124.950 55.514 C 122.264 55.870,116.982 58.388,115.001 60.256 C 113.651 61.530,113.518 61.573,113.317 60.804 C 112.770 58.711,107.131 60.194,104.096 63.229 C 103.738 63.588,103.363 63.799,103.262 63.699 C 102.972 63.409,107.019 53.488,107.709 52.798 C 108.323 52.184,110.596 49.080,111.033 48.260 C 111.523 47.338,109.882 45.708,108.342 45.588 C 106.975 45.481,105.808 45.115,105.560 44.715 C 105.369 44.405,105.202 44.443,105.048 44.831 C 104.868 45.281,104.811 45.286,104.785 44.854 C 104.767 44.550,104.597 44.396,104.408 44.513 C 103.734 44.930,99.894 44.136,99.894 43.580 C 99.894 42.950,105.856 40.839,109.521 40.172 C 112.555 39.620,113.331 39.199,113.415 38.062 C 113.493 37.001,113.558 37.021,112.541 37.790 M265.218 39.041 C 265.118 39.141,263.963 39.281,262.651 39.353 C 261.339 39.425,260.355 39.629,260.464 39.805 C 260.573 39.982,260.360 40.127,259.991 40.127 C 259.621 40.127,259.219 40.388,259.096 40.706 C 258.811 41.449,253.689 45.618,253.061 45.618 C 252.800 45.618,252.587 45.786,252.587 45.991 C 252.587 46.196,252.254 46.463,251.848 46.585 C 251.441 46.706,249.696 47.312,247.969 47.931 C 244.955 49.012,243.742 49.313,240.971 49.669 C 240.275 49.758,238.678 50.055,237.423 50.328 C 235.766 50.688,234.812 50.699,233.935 50.368 C 233.272 50.118,232.819 50.059,232.929 50.237 C 233.040 50.415,232.423 50.760,231.560 51.002 C 230.006 51.439,229.258 51.542,227.285 51.588 C 226.494 51.607,226.401 51.705,226.862 52.031 C 227.307 52.345,227.217 52.397,226.504 52.241 C 225.981 52.126,225.660 52.205,225.790 52.415 C 225.920 52.626,225.635 52.822,225.157 52.851 C 223.391 52.958,223.240 53.024,223.100 53.749 C 222.947 54.545,224.984 54.839,225.787 54.137 C 226.432 53.572,229.367 52.849,232.101 52.581 C 238.469 51.956,246.337 50.307,249.630 48.905 C 253.961 47.063,255.724 45.918,258.434 43.190 C 260.506 41.104,261.178 40.779,264.308 40.351 C 265.788 40.148,266.526 39.850,266.526 39.454 C 266.526 38.904,265.636 38.624,265.218 39.041 M265.292 41.183 C 265.255 42.715,265.817 43.120,271.806 45.870 C 272.735 46.297,273.685 46.801,273.918 46.991 C 274.150 47.181,274.720 47.618,275.185 47.963 C 275.983 48.555,275.950 48.583,274.569 48.476 C 272.469 48.314,271.125 49.580,271.687 51.191 C 271.914 51.843,272.263 52.376,272.464 52.376 C 274.375 52.376,277.575 59.025,278.968 65.892 C 279.274 67.402,279.827 70.063,280.195 71.806 C 280.789 74.611,281.232 77.695,282.029 84.575 C 282.295 86.873,283.028 87.783,283.833 86.814 C 284.408 86.121,283.568 78.486,282.160 71.595 C 279.580 58.977,278.319 55.623,274.933 52.376 C 272.486 50.030,272.354 49.419,274.295 49.419 C 276.599 49.419,276.775 47.745,274.636 46.177 C 273.222 45.139,267.298 42.239,266.594 42.239 C 266.309 42.239,265.904 41.811,265.694 41.288 C 265.345 40.419,265.311 40.410,265.292 41.183 M188.062 50.914 C 188.357 51.408,183.976 52.573,183.329 52.173 C 183.108 52.037,182.587 52.112,182.171 52.340 C 181.410 52.759,177.496 53.814,174.081 54.521 C 173.068 54.731,171.785 54.789,171.230 54.649 C 170.622 54.497,170.222 54.582,170.222 54.864 C 170.222 55.168,169.027 55.333,166.818 55.333 C 164.946 55.333,163.502 55.190,163.610 55.016 C 163.718 54.842,162.779 54.739,161.523 54.789 C 160.127 54.844,159.240 54.703,159.240 54.427 C 159.240 54.178,158.961 54.082,158.620 54.213 C 158.279 54.344,157.878 54.254,157.729 54.013 C 157.580 53.772,156.974 53.696,156.383 53.845 C 155.732 54.008,155.184 53.915,154.995 53.610 C 154.824 53.333,153.903 53.106,152.949 53.106 C 151.995 53.106,151.214 52.989,151.214 52.846 C 151.214 52.704,150.502 52.571,149.630 52.551 C 148.759 52.530,147.096 52.390,145.935 52.238 C 138.774 51.300,132.510 52.636,129.378 55.769 C 128.727 56.419,127.952 56.822,127.606 56.689 C 127.159 56.517,127.069 56.655,127.276 57.195 C 127.433 57.602,127.561 58.111,127.561 58.324 C 127.561 59.089,128.347 58.682,130.366 56.872 C 135.457 52.310,139.335 51.945,153.326 54.712 C 159.723 55.977,161.221 56.196,165.153 56.441 C 169.315 56.700,169.531 56.668,179.725 54.287 C 190.721 51.718,204.646 51.672,201.013 54.217 L 200.023 54.910 201.198 54.910 C 201.874 54.910,202.262 54.731,202.112 54.488 C 201.968 54.256,202.046 54.065,202.285 54.065 C 202.524 54.065,202.614 53.793,202.487 53.460 C 202.183 52.667,198.807 51.531,196.757 51.531 C 195.869 51.531,195.143 51.370,195.143 51.173 C 195.143 50.783,192.250 50.888,190.388 51.345 C 189.648 51.527,188.965 51.420,188.512 51.053 C 188.120 50.735,187.918 50.673,188.062 50.914 M208.970 53.298 C 208.683 53.481,209.588 53.618,210.982 53.603 C 213.669 53.575,213.708 53.385,211.082 53.124 C 210.208 53.038,209.257 53.116,208.970 53.298 M205.770 53.721 C 204.762 53.946,204.031 54.225,204.147 54.341 C 204.491 54.685,208.237 54.002,208.237 53.595 C 208.237 53.169,208.242 53.168,205.770 53.721 M219.856 54.026 C 220.116 54.482,219.982 54.565,219.285 54.383 C 218.784 54.252,218.374 54.271,218.374 54.425 C 218.374 54.579,217.661 54.929,216.790 55.203 C 214.218 56.012,211.929 57.054,212.178 57.303 C 212.305 57.430,213.621 57.143,215.102 56.664 C 221.675 54.541,221.609 54.519,226.088 60.241 C 227.930 62.594,228.576 63.092,228.966 62.460 C 229.204 62.075,228.929 61.464,228.136 60.615 C 227.484 59.917,226.303 58.599,225.513 57.686 C 223.038 54.828,222.624 54.488,221.626 54.488 C 221.092 54.488,220.399 54.250,220.086 53.960 C 219.626 53.533,219.582 53.545,219.856 54.026 M212.101 55.588 C 211.787 55.943,211.614 56.317,211.716 56.419 C 211.819 56.521,212.247 56.224,212.669 55.758 C 213.091 55.292,213.264 54.917,213.054 54.926 C 212.844 54.935,212.415 55.233,212.101 55.588 M230.120 61.468 C 229.998 61.589,230.585 62.397,231.425 63.263 C 232.817 64.697,235.231 67.433,237.032 69.615 C 237.420 70.086,237.942 70.852,238.190 71.317 C 238.439 71.782,238.882 72.419,239.174 72.734 C 239.465 73.048,240.367 74.156,241.177 75.195 C 241.987 76.235,242.937 77.434,243.289 77.860 C 244.494 79.321,245.197 80.234,246.251 81.709 C 246.832 82.522,247.432 83.192,247.585 83.199 C 248.041 83.218,247.472 81.586,246.839 81.060 C 246.516 80.792,246.251 80.326,246.251 80.026 C 246.251 79.725,246.104 79.416,245.924 79.338 C 245.744 79.261,244.572 77.582,243.319 75.607 C 242.066 73.633,240.926 71.922,240.785 71.806 C 240.645 71.690,240.169 71.029,239.728 70.338 C 238.881 69.009,238.638 68.701,236.959 66.827 C 236.378 66.179,235.203 64.861,234.347 63.899 C 232.391 61.701,230.801 60.786,230.120 61.468 M248.684 81.763 C 248.529 81.918,249.059 83.071,249.862 84.326 C 254.117 90.978,258.675 102.964,259.556 109.820 C 259.721 111.098,260.145 113.189,260.499 114.467 C 260.853 115.744,261.368 118.310,261.642 120.169 L 262.141 123.548 262.393 119.324 C 262.642 115.157,261.893 106.892,261.016 104.118 C 257.696 93.627,255.489 88.316,253.505 86.041 C 253.140 85.623,252.796 84.972,252.741 84.593 C 252.467 82.726,249.671 80.776,248.684 81.763 M207.392 82.201 C 203.657 82.906,195.634 86.370,194.298 87.854 C 194.182 87.983,192.992 89.111,191.653 90.361 C 189.075 92.769,187.806 93.015,189.891 90.703 C 190.892 89.593,190.802 89.635,189.411 90.927 C 188.469 91.803,187.586 92.408,187.450 92.272 C 187.313 92.136,187.230 92.369,187.265 92.791 C 187.301 93.227,187.087 93.508,186.769 93.443 C 186.461 93.379,186.331 93.523,186.479 93.763 C 186.628 94.003,186.374 94.340,185.915 94.513 C 181.248 96.265,178.631 106.611,177.877 126.294 L 177.529 135.375 178.745 138.543 C 180.016 141.850,180.111 142.079,181.655 145.512 C 186.529 156.350,193.696 163.895,201.392 166.288 C 215.826 170.775,224.814 167.537,235.614 153.960 C 235.799 153.728,236.607 152.397,237.411 151.003 C 245.545 136.891,246.837 123.950,241.818 106.864 C 240.352 101.874,237.770 96.835,235.394 94.330 C 234.882 93.789,234.573 93.347,234.707 93.347 C 234.841 93.347,234.715 93.064,234.428 92.718 C 234.141 92.373,233.785 92.157,233.637 92.239 C 233.490 92.321,232.703 91.573,231.890 90.576 C 231.077 89.579,230.142 88.648,229.813 88.507 C 229.308 88.291,230.710 89.991,233.891 93.451 C 234.264 93.857,234.426 94.332,234.251 94.506 C 234.076 94.681,233.528 94.268,233.032 93.588 C 230.971 90.757,223.346 84.477,221.971 84.477 C 221.805 84.477,221.070 84.221,220.338 83.909 C 219.606 83.596,218.330 83.121,217.502 82.854 C 215.853 82.321,209.075 81.884,207.392 82.201 M215.605 85.965 C 234.669 90.387,245.213 121.946,234.971 143.929 C 233.765 146.517,230.794 151.480,229.897 152.406 C 229.599 152.713,229.356 153.107,229.356 153.282 C 229.356 153.456,228.389 154.561,227.208 155.736 C 225.367 157.567,225.147 157.953,225.666 158.438 C 226.391 159.116,226.119 159.451,223.499 161.105 C 222.496 161.738,221.397 162.150,221.058 162.020 C 220.719 161.890,220.552 161.962,220.687 162.180 C 220.822 162.398,220.559 162.776,220.103 163.020 C 218.999 163.611,218.796 163.581,218.796 162.830 C 218.796 161.895,217.705 162.060,216.598 163.161 C 215.809 163.946,215.235 164.106,213.516 164.022 C 211.842 163.940,211.623 163.997,212.460 164.299 C 213.806 164.784,208.506 164.400,206.969 163.901 C 206.389 163.713,205.087 163.334,204.077 163.059 C 203.067 162.785,202.328 162.473,202.435 162.367 C 202.541 162.260,203.173 162.380,203.840 162.633 C 205.834 163.392,204.566 162.512,202.198 161.495 C 200.989 160.976,200.045 160.358,200.101 160.122 C 200.156 159.886,199.918 159.801,199.573 159.934 C 199.177 160.086,198.944 159.923,198.944 159.496 C 198.944 159.123,198.777 158.817,198.573 158.817 C 196.964 158.817,189.898 149.695,187.450 144.456 C 185.155 139.543,184.583 138.183,184.583 137.635 C 184.583 137.298,184.345 136.783,184.055 136.491 C 181.914 134.339,185.118 101.861,187.554 101.021 C 187.778 100.943,187.962 100.611,187.962 100.282 C 187.962 99.952,188.122 99.683,188.317 99.683 C 188.512 99.683,188.868 99.256,189.109 98.733 C 193.101 90.076,206.172 83.778,215.605 85.965 M127.138 86.204 C 126.093 86.406,124.857 86.746,124.393 86.960 C 123.928 87.173,122.788 87.679,121.859 88.084 C 120.929 88.489,119.664 89.173,119.048 89.605 C 118.431 90.037,117.615 90.391,117.235 90.391 C 116.468 90.391,116.029 90.720,113.723 93.026 C 105.303 101.446,103.145 108.469,103.043 127.772 C 103.007 134.592,103.107 135.031,106.254 141.828 C 106.822 143.054,107.286 144.142,107.286 144.246 C 107.286 145.115,113.338 153.471,115.420 155.477 C 118.255 158.208,122.787 160.696,125.806 161.179 C 126.771 161.333,127.561 161.625,127.561 161.828 C 127.561 162.031,129.670 162.196,132.248 162.196 C 138.980 162.196,142.461 161.033,147.734 157.020 C 149.765 155.474,150.467 154.768,153.168 151.553 C 155.776 148.449,159.419 141.439,160.698 137.064 C 161.106 135.671,161.607 133.986,161.813 133.320 C 162.018 132.655,162.310 130.343,162.462 128.184 C 162.702 124.775,162.855 124.196,163.629 123.788 C 164.441 123.361,164.417 123.339,163.358 123.547 C 161.539 123.904,161.998 123.000,163.896 122.489 C 165.711 122.001,167.208 122.384,165.759 122.966 C 165.309 123.146,166.082 123.182,167.476 123.046 C 170.178 122.781,171.096 122.492,169.236 122.492 C 167.999 122.492,167.724 121.886,168.778 121.481 C 169.863 121.065,172.261 121.188,172.563 121.676 C 172.716 121.924,173.107 122.025,173.432 121.901 C 173.757 121.776,174.450 121.846,174.973 122.056 C 175.731 122.361,175.454 122.455,173.601 122.519 L 171.278 122.600 173.971 123.012 C 176.626 123.419,177.372 123.186,177.396 121.943 C 177.423 120.499,169.157 119.859,164.942 120.978 C 162.537 121.616,162.281 121.400,162.226 118.690 C 162.183 116.536,160.567 109.421,159.779 107.917 C 159.184 106.781,158.501 105.207,157.992 103.801 C 157.760 103.163,157.382 102.640,157.151 102.640 C 156.921 102.640,156.841 102.356,156.974 102.010 C 157.111 101.651,156.925 101.269,156.540 101.121 C 156.169 100.978,155.963 100.703,156.083 100.510 C 156.203 100.316,155.964 99.962,155.553 99.722 C 155.141 99.482,154.973 99.281,155.178 99.274 C 155.384 99.267,155.063 98.876,154.464 98.405 C 153.866 97.934,153.272 97.221,153.145 96.820 C 153.017 96.419,152.484 95.823,151.958 95.496 C 150.963 94.876,151.601 96.036,152.680 96.809 C 152.906 96.971,152.961 97.232,152.803 97.390 C 152.645 97.548,151.999 97.062,151.366 96.311 C 150.734 95.559,149.943 94.671,149.609 94.337 C 149.275 94.003,149.135 93.596,149.298 93.434 C 149.461 93.271,149.837 93.470,150.134 93.876 C 150.431 94.282,150.829 94.615,151.018 94.615 C 151.207 94.615,150.913 94.137,150.365 93.554 C 149.686 92.831,149.273 92.649,149.067 92.983 C 148.862 93.314,148.156 92.974,146.883 91.932 C 145.849 91.084,144.785 90.391,144.518 90.391 C 144.252 90.391,144.034 90.221,144.034 90.014 C 144.034 89.557,140.643 88.149,140.320 88.472 C 140.195 88.598,140.277 88.701,140.504 88.701 C 140.730 88.701,141.285 88.989,141.736 89.341 C 142.508 89.944,142.482 89.965,141.288 89.699 C 140.591 89.543,139.919 89.261,139.793 89.072 C 139.668 88.883,138.965 88.682,138.231 88.626 C 137.201 88.548,136.999 88.401,137.344 87.985 C 137.705 87.550,137.530 87.537,136.446 87.914 C 135.594 88.212,134.952 88.236,134.698 87.982 C 133.801 87.085,125.031 88.587,121.892 90.175 C 118.554 91.864,117.733 91.851,120.424 90.152 C 122.488 88.849,125.168 87.745,128.089 86.995 C 129.192 86.711,130.095 86.314,130.095 86.112 C 130.095 85.689,129.749 85.700,127.138 86.204 M130.844 86.943 C 131.350 87.265,133.897 87.105,133.897 86.752 C 133.897 86.663,133.089 86.592,132.101 86.596 C 131.025 86.600,130.521 86.739,130.844 86.943 M280.262 89.536 C 279.847 89.995,279.355 90.277,279.170 90.163 C 278.985 90.048,278.696 90.177,278.528 90.449 C 278.327 90.774,278.425 90.843,278.815 90.651 C 279.142 90.491,279.052 90.604,278.616 90.903 C 278.179 91.202,276.421 92.858,274.709 94.583 C 272.996 96.308,271.595 97.496,271.595 97.223 C 271.595 96.950,271.404 96.727,271.172 96.727 C 270.406 96.727,270.732 97.463,271.812 98.170 C 272.871 98.864,272.888 98.854,276.678 95.164 C 283.397 88.623,285.056 88.776,289.227 96.318 C 293.174 103.453,293.281 109.113,289.620 117.095 C 289.011 118.425,288.386 120.041,288.231 120.686 C 288.077 121.331,287.808 122.049,287.634 122.281 C 287.039 123.072,285.197 132.246,285.004 135.375 C 284.932 136.543,285.062 137.032,285.428 136.959 C 286.278 136.789,286.035 137.444,285.005 138.099 C 280.250 141.121,277.272 141.569,275.500 139.528 C 274.929 138.870,274.278 138.384,274.053 138.448 C 273.828 138.511,273.747 138.397,273.873 138.193 C 274.488 137.198,273.013 136.311,271.385 136.696 L 269.771 137.078 272.056 139.463 C 275.318 142.870,279.654 143.229,283.768 140.433 C 284.614 139.858,285.478 139.388,285.687 139.388 C 286.962 139.388,287.793 137.366,288.292 133.052 C 288.545 130.855,288.800 129.643,289.845 125.660 C 290.088 124.731,291.140 121.690,292.182 118.902 C 295.828 109.143,296.237 105.010,294.102 99.482 C 292.633 95.678,288.560 89.386,287.434 89.182 C 284.568 88.664,282.069 88.667,281.425 89.189 C 280.931 89.590,280.818 89.601,281.042 89.229 C 281.519 88.435,281.115 88.594,280.262 89.536 M139.176 90.372 C 144.349 92.620,148.076 95.889,151.395 101.091 C 155.580 107.648,157.195 114.048,157.276 124.393 C 157.340 132.473,156.568 136.100,153.561 141.838 C 153.159 142.605,152.940 143.518,153.073 143.866 C 153.207 144.215,153.142 144.392,152.928 144.260 C 152.715 144.128,152.421 144.213,152.275 144.449 C 152.129 144.685,152.242 144.879,152.527 144.879 C 152.812 144.879,152.902 145.021,152.728 145.195 C 152.554 145.370,152.251 145.512,152.055 145.512 C 151.858 145.512,151.113 146.320,150.398 147.307 C 149.682 148.295,149.290 149.102,149.526 149.102 C 149.783 149.102,149.743 149.441,149.427 149.947 C 149.137 150.412,148.732 150.792,148.527 150.792 C 148.322 150.792,148.391 150.507,148.680 150.158 C 149.801 148.808,148.674 149.622,146.687 151.598 C 145.541 152.739,143.952 154.084,143.157 154.588 C 142.202 155.192,142.034 155.411,142.661 155.231 C 143.223 155.070,143.611 155.143,143.611 155.410 C 143.611 155.803,142.785 156.007,141.268 155.988 C 141.024 155.985,140.798 156.350,140.764 156.798 C 140.717 157.418,140.833 157.505,141.245 157.163 C 141.544 156.916,141.913 156.838,142.066 156.991 C 142.219 157.144,142.344 157.067,142.344 156.822 C 142.344 156.576,142.822 156.255,143.407 156.108 C 144.499 155.834,145.469 155.165,147.440 153.326 C 148.062 152.746,149.119 151.795,149.787 151.214 L 151.003 150.158 149.947 151.400 C 145.566 156.553,139.116 160.020,133.716 160.127 C 132.010 160.160,131.789 160.238,132.629 160.507 C 133.612 160.822,133.621 160.848,132.760 160.887 C 132.251 160.910,131.712 160.731,131.563 160.490 C 131.413 160.248,130.927 160.166,130.482 160.307 C 130.037 160.448,129.673 160.391,129.673 160.180 C 129.673 159.969,128.614 159.560,127.321 159.270 C 125.244 158.805,122.239 157.530,121.014 156.593 C 118.805 154.904,118.181 154.133,119.236 154.398 C 119.819 154.544,120.412 154.460,120.567 154.210 C 120.745 153.923,120.582 153.860,120.122 154.036 C 119.591 154.240,119.489 154.165,119.743 153.755 C 119.956 153.410,119.924 153.297,119.658 153.461 C 119.422 153.608,118.537 152.980,117.692 152.067 C 116.125 150.373,115.738 149.657,116.684 150.201 C 116.991 150.378,117.065 150.344,116.860 150.121 C 116.667 149.909,116.449 149.831,116.377 149.947 C 116.193 150.242,114.467 148.634,114.467 148.167 C 114.467 147.957,114.686 147.921,114.954 148.087 C 115.259 148.275,115.327 148.203,115.136 147.894 C 114.968 147.622,114.622 147.528,114.366 147.686 C 114.072 147.868,113.994 147.730,114.155 147.312 C 114.294 146.948,114.126 146.299,113.781 145.870 C 113.203 145.152,113.191 145.173,113.627 146.146 L 114.101 147.202 113.257 146.153 C 112.793 145.576,112.566 145.005,112.753 144.885 C 112.940 144.765,112.495 143.432,111.765 141.922 C 108.330 134.818,107.940 133.309,108.047 127.561 C 108.398 108.863,110.067 103.225,117.424 95.882 C 123.553 89.765,132.540 87.488,139.176 90.372 M116.504 93.695 C 115.503 94.630,114.610 95.321,114.521 95.232 C 114.431 95.142,115.190 94.317,116.206 93.397 C 117.222 92.477,118.115 91.786,118.189 91.861 C 118.264 91.935,117.506 92.761,116.504 93.695 M270.592 93.495 C 268.263 95.991,267.328 98.390,266.702 103.471 C 266.220 107.385,265.360 111.030,265.285 109.474 C 265.197 107.624,264.053 110.528,263.808 113.224 C 263.651 114.953,263.320 117.849,263.072 119.660 C 262.824 121.471,262.720 123.051,262.841 123.172 C 263.310 123.641,264.805 117.443,265.078 113.895 C 265.236 111.838,265.508 110.385,265.682 110.667 C 266.192 111.491,266.445 110.668,267.184 105.774 C 268.603 96.382,270.572 92.503,273.921 92.503 C 274.830 92.503,275.340 92.332,275.185 92.080 C 274.537 91.032,272.227 91.744,270.592 93.495 M188.807 92.845 C 188.807 93.034,188.465 93.557,188.046 94.007 C 187.628 94.457,186.922 95.444,186.477 96.199 C 186.032 96.954,185.519 97.571,185.337 97.571 C 185.154 97.571,185.005 97.856,185.005 98.205 C 185.005 98.553,184.815 98.838,184.583 98.838 C 184.351 98.838,184.161 99.100,184.161 99.420 C 184.161 99.740,183.841 100.263,183.450 100.582 C 182.649 101.235,184.794 97.147,185.871 95.966 C 186.231 95.571,186.890 94.630,187.335 93.875 C 188.098 92.581,188.807 92.085,188.807 92.845 M112.355 147.084 C 112.355 147.631,112.371 147.648,111.123 145.723 L 110.165 144.245 111.260 145.430 C 111.862 146.082,112.355 146.826,112.355 147.084 M236.114 145.130 C 236.114 145.269,235.771 145.886,235.353 146.503 C 234.934 147.120,234.126 148.527,233.558 149.630 C 232.990 150.734,232.380 151.637,232.202 151.637 C 232.025 151.637,232.357 150.880,232.941 149.956 C 233.525 149.031,234.002 148.157,234.002 148.014 C 234.002 147.871,234.377 147.229,234.834 146.586 C 235.292 145.943,235.546 145.296,235.398 145.148 C 235.250 145.000,235.350 144.879,235.621 144.879 C 235.892 144.879,236.114 144.992,236.114 145.130 M151.300 147.410 C 150.905 148.106,150.425 148.676,150.235 148.677 C 150.045 148.679,150.296 148.110,150.792 147.413 C 151.951 145.785,152.226 145.783,151.300 147.410 M113.717 149.020 C 114.102 149.672,114.889 150.676,115.465 151.253 C 116.398 152.186,116.426 152.300,115.721 152.300 C 115.286 152.300,115.003 152.227,115.093 152.137 C 115.183 152.047,114.603 151.042,113.803 149.904 C 113.003 148.766,112.499 147.835,112.683 147.835 C 112.867 147.835,113.332 148.368,113.717 149.020 M146.949 152.674 C 146.173 153.497,145.342 154.170,145.102 154.168 C 144.863 154.166,145.428 153.428,146.357 152.527 C 148.438 150.509,148.887 150.620,146.949 152.674 M231.218 153.115 C 230.837 153.696,230.344 154.171,230.122 154.171 C 229.900 154.171,230.017 153.872,230.382 153.507 C 230.747 153.142,231.045 152.667,231.045 152.451 C 231.045 152.236,231.240 152.059,231.478 152.059 C 231.715 152.059,231.598 152.534,231.218 153.115 M138.684 157.248 C 138.684 157.547,139.032 157.792,139.458 157.792 C 140.409 157.792,140.470 157.310,139.564 156.962 C 138.681 156.623,138.684 156.622,138.684 157.248 M223.833 158.501 C 223.348 160.083,223.530 160.294,224.794 159.617 C 225.496 159.241,225.553 159.076,225.083 158.778 C 224.518 158.420,223.899 158.283,223.833 158.501 M217.951 163.464 C 217.951 163.696,217.872 163.886,217.775 163.886 C 217.678 163.886,217.256 164.017,216.838 164.178 C 216.160 164.438,216.145 164.395,216.698 163.771 C 217.404 162.977,217.951 162.842,217.951 163.464 M126.720 163.946 C 126.732 165.701,129.314 174.551,130.954 178.458 C 131.150 178.923,131.442 179.778,131.605 180.359 C 131.768 180.940,132.350 182.401,132.899 183.605 C 133.448 184.810,133.897 185.895,133.897 186.016 C 133.897 187.978,144.303 206.007,147.615 209.784 C 147.852 210.054,148.522 210.901,149.102 211.666 C 153.087 216.914,166.876 228.511,169.131 228.511 C 169.232 228.511,170.752 229.175,172.509 229.986 C 174.265 230.797,176.417 231.636,177.291 231.850 C 178.165 232.064,180.021 232.572,181.415 232.980 C 184.400 233.852,196.884 234.044,200.422 233.272 C 201.584 233.018,203.675 232.586,205.069 232.310 C 214.777 230.391,227.852 224.116,235.903 217.513 C 240.571 213.684,248.151 204.761,249.522 201.478 C 249.862 200.665,250.527 199.145,251.000 198.099 C 253.321 192.971,255.279 185.428,254.290 185.428 C 254.065 185.428,253.988 185.760,254.119 186.167 C 254.317 186.785,254.283 186.803,253.912 186.276 C 253.628 185.874,253.614 185.499,253.872 185.241 C 254.544 184.569,254.331 182.887,253.537 182.594 C 253.131 182.444,252.672 182.132,252.518 181.902 C 252.266 181.526,251.812 182.371,249.792 186.970 C 249.471 187.702,249.208 188.512,249.208 188.771 C 249.208 189.029,249.037 189.571,248.829 189.974 C 248.621 190.377,248.119 191.563,247.715 192.608 C 247.311 193.654,246.651 195.269,246.249 196.199 C 245.846 197.128,245.372 198.363,245.195 198.944 C 245.018 199.525,244.476 200.564,243.990 201.254 C 243.504 201.943,243.064 202.793,243.013 203.143 C 242.961 203.492,242.671 203.974,242.368 204.212 C 242.064 204.451,241.816 204.909,241.816 205.230 C 241.816 205.551,241.204 206.142,240.455 206.543 C 239.706 206.945,239.215 207.395,239.364 207.544 C 239.512 207.693,239.380 207.814,239.071 207.814 C 238.761 207.814,238.628 207.934,238.774 208.081 C 239.139 208.445,238.306 209.926,237.737 209.926 C 237.446 209.926,237.484 209.655,237.841 209.187 C 238.151 208.780,237.794 209.006,237.048 209.688 C 235.709 210.913,235.292 211.490,236.114 210.982 C 236.757 210.585,236.618 211.172,235.899 211.891 C 235.548 212.242,235.388 212.733,235.542 212.982 C 235.713 213.260,235.622 213.312,235.306 213.117 C 235.006 212.931,234.565 213.107,234.250 213.538 C 233.824 214.120,233.636 214.160,233.368 213.726 C 233.142 213.362,233.192 213.277,233.514 213.476 C 233.783 213.642,234.002 213.560,234.002 213.295 C 234.002 212.670,232.963 213.009,232.893 213.657 C 232.864 213.928,232.817 214.327,232.788 214.544 C 232.724 215.019,230.381 216.733,229.647 216.840 C 228.995 216.936,226.997 218.899,227.133 219.309 C 227.189 219.475,226.983 219.514,226.676 219.396 C 226.362 219.276,226.118 219.467,226.118 219.834 C 226.118 220.192,226.348 220.486,226.629 220.486 C 227.336 220.486,228.150 219.428,227.768 219.006 C 227.596 218.816,227.678 218.789,227.951 218.945 C 228.656 219.348,230.696 218.329,230.453 217.696 C 230.342 217.406,230.572 216.917,230.965 216.610 C 231.607 216.107,231.620 216.126,231.099 216.790 C 230.159 217.989,231.020 217.645,233.541 215.814 L 235.903 214.099 234.002 215.830 C 230.617 218.912,219.439 225.535,215.206 226.966 C 214.741 227.123,213.791 227.453,213.094 227.699 C 209.711 228.893,204.313 230.341,200.422 231.096 C 193.964 232.350,180.299 231.445,180.686 229.789 C 180.761 229.469,180.497 229.389,179.946 229.564 C 179.420 229.731,178.834 229.580,178.427 229.174 C 178.062 228.809,177.290 228.511,176.711 228.511 C 175.192 228.511,174.009 227.773,174.302 227.009 C 174.438 226.655,174.383 226.395,174.181 226.432 C 173.059 226.637,172.264 226.345,172.471 225.805 C 172.687 225.242,171.991 224.403,170.684 223.653 C 170.286 223.424,170.190 223.472,170.393 223.800 C 170.569 224.085,170.432 224.287,170.060 224.287 C 169.260 224.287,168.785 223.569,169.441 223.351 C 170.344 223.050,167.245 221.451,166.161 221.659 C 165.055 221.870,165.176 222.357,166.353 222.430 C 168.202 222.543,168.532 222.624,168.532 222.961 C 168.532 223.847,165.559 223.048,164.560 221.894 C 163.585 220.768,163.572 220.689,164.339 220.562 C 165.787 220.322,163.662 218.374,161.951 218.374 C 161.621 218.374,161.399 218.221,161.457 218.033 C 161.611 217.537,159.222 215.417,158.509 215.417 C 158.175 215.417,157.988 215.180,158.093 214.889 C 158.376 214.106,153.067 209.045,152.279 209.348 C 151.926 209.483,151.637 209.372,151.637 209.102 C 151.637 208.831,151.807 208.714,152.015 208.843 C 152.685 209.257,152.876 207.894,152.223 207.352 C 151.876 207.065,150.817 205.724,149.870 204.374 C 148.923 203.024,147.953 202.039,147.715 202.186 C 147.469 202.338,147.410 202.247,147.579 201.973 C 147.742 201.709,147.392 200.781,146.800 199.909 C 146.208 199.038,145.723 198.097,145.723 197.818 C 145.723 197.540,145.343 197.191,144.879 197.043 C 144.414 196.896,144.034 196.587,144.034 196.356 C 144.034 196.126,144.271 196.080,144.562 196.255 C 144.961 196.495,144.957 196.408,144.544 195.898 C 143.927 195.136,138.554 184.536,138.547 184.067 C 138.545 183.900,138.097 182.760,137.553 181.533 C 137.008 180.307,136.324 178.638,136.032 177.825 C 135.344 175.910,134.736 174.417,134.270 173.501 C 134.064 173.098,133.897 172.587,133.897 172.367 C 133.897 172.147,133.675 171.431,133.404 170.777 C 133.133 170.123,132.491 168.448,131.976 167.054 C 131.462 165.660,130.828 164.567,130.568 164.625 C 130.308 164.683,130.095 164.588,130.095 164.414 C 130.095 164.240,129.667 164.081,129.145 164.061 C 128.622 164.041,127.862 163.878,127.455 163.699 C 126.954 163.478,126.717 163.558,126.720 163.946 M149.358 206.758 C 149.613 207.571,149.773 208.237,149.715 208.237 C 149.656 208.237,149.216 207.571,148.736 206.758 C 148.164 205.788,148.041 205.280,148.380 205.280 C 148.664 205.280,149.104 205.945,149.358 206.758 M152.814 211.111 C 153.653 212.375,153.266 212.279,152.096 210.934 C 151.568 210.326,151.375 209.909,151.667 210.007 C 151.959 210.104,152.475 210.601,152.814 211.111 M237.810 212.665 C 237.025 213.475,236.294 214.048,236.184 213.939 C 235.996 213.750,238.648 211.214,239.048 211.200 C 239.152 211.196,238.594 211.856,237.810 212.665 M225.079 219.616 C 225.050 219.862,225.003 220.285,224.974 220.556 C 224.945 220.827,224.657 221.137,224.334 221.245 C 223.976 221.364,223.863 221.253,224.044 220.960 C 224.264 220.603,224.067 220.604,223.278 220.964 C 222.693 221.230,222.253 221.636,222.301 221.865 C 222.348 222.094,222.164 222.363,221.892 222.463 C 221.569 222.582,221.480 222.329,221.635 221.736 C 221.855 220.895,221.788 220.911,220.753 221.946 C 220.138 222.562,219.459 222.957,219.244 222.825 C 219.030 222.692,218.735 222.777,218.589 223.013 C 218.246 223.568,219.047 223.564,220.091 223.005 C 220.540 222.765,220.908 222.682,220.908 222.820 C 220.908 223.070,215.688 225.554,215.163 225.554 C 215.014 225.554,215.152 225.236,215.471 224.846 C 215.989 224.213,215.964 224.185,215.238 224.587 C 213.511 225.542,214.073 226.340,216.052 225.744 C 220.931 224.276,226.913 220.270,225.517 219.407 C 225.305 219.276,225.108 219.370,225.079 219.616 M169.189 224.324 C 169.345 224.577,169.822 224.692,170.250 224.580 C 170.677 224.468,171.369 224.636,171.786 224.952 C 172.498 225.492,172.487 225.528,171.595 225.541 C 171.072 225.548,170.641 225.792,170.638 226.082 C 170.633 226.461,170.543 226.475,170.321 226.131 C 170.150 225.868,169.648 225.583,169.206 225.498 C 168.763 225.413,168.352 225.011,168.293 224.604 C 168.173 223.785,168.745 223.606,169.189 224.324 M177.825 227.219 C 177.825 227.465,177.492 227.680,177.086 227.696 C 176.359 227.725,177.441 228.396,178.353 228.481 C 178.823 228.525,178.736 227.335,178.247 227.033 C 178.015 226.889,177.825 226.973,177.825 227.219 M200.000 228.556 C 199.071 228.698,198.405 228.851,198.522 228.896 C 199.108 229.126,204.013 229.107,204.013 228.876 C 204.013 228.448,201.842 228.275,200.000 228.556 M182.260 229.778 C 183.422 230.278,183.836 230.278,183.527 229.778 C 183.383 229.546,182.849 229.369,182.340 229.386 C 181.448 229.414,181.445 229.428,182.260 229.778 M185.073 229.685 C 184.042 230.029,184.652 230.428,186.272 230.470 C 187.202 230.495,187.962 230.371,187.962 230.194 C 187.962 229.824,185.799 229.443,185.073 229.685 " stroke="none" fill="#000000" fill-rule="evenodd"></path></g></svg>
